:version 1.10
:name ASF
:units
  mass 1
  length 1
  angle deg
:documentation
  ASF file generated by Kaydara
:root
  axis xyz
  order  tx ty tz rx ry rz
  position 0 0 0
  orientation 0 0 0
:bonedata
  begin
    id 1
    name RightUpLegDummy
    direction -0.65628 -0.754516 0.00165102
    length 4.76918
    axis 0 0 0 xyz
  end
  begin
    id 2
    name RightUpLeg
    direction -0.145584 -0.923362 0.355256
    length 17.9961
    axis -24.7611 -13.1006 1.78531 xyz
    dof rx ry rz
  end
  begin
    id 3
    name RightLeg
    direction 0.263379 0.172355 -0.949171
    length 13.3386
    axis 89.6202 -21.1929 12.3855 xyz
    dof rx ry rz
  end
  begin
    id 4
    name RightFoot
    direction 0.224283 -0.968777 -0.105675
    length 5.86697
    axis 56.995 -39.6905 17.3365 xyz
    dof rx ry rz
  end
  begin
    id 5
    name RightToes
    direction -0.0806345 -0.9037 0.420506
    length 4.75197
    axis 146.825 -39.7828 17.6019 xyz
    dof rx ry rz
  end
  begin
    id 6
    name SpineDummy
    direction -3.39852e-014 1 9.33296e-014
    length 8.13779
    axis 0 0 0 xyz
  end
  begin
    id 7
    name Spine
    direction -0.156609 0.733703 0.661176
    length 7.14978
    axis 41.2365 5.68757 17.0844 xyz
    dof rx ry rz
  end
  begin
    id 8
    name Spine1
    direction 0 0 0
    length 0
    axis 42.8809 47.8308 -3.36039 xyz
    dof rx ry rz
  end
  begin
    id 9
    name HEadDummy
    direction 0.546431 0.701947 0.456819
    length 3.55512
    axis 42.8809 47.8308 -3.36039 xyz
  end
  begin
    id 10
    name HEad
    direction 0.23444 0.828559 0.508457
    length 7.35827
    axis 51.1864 49.2662 27.4903 xyz
    dof rx ry rz
  end
  begin
    id 11
    name LeftShoulder1Dummy
    direction 0.431183 0.475873 -0.766568
    length 2.49352
    axis 42.8809 47.8308 -3.36039 xyz
  end
  begin
    id 12
    name LeftShoulder1
    direction 0.268187 -0.383402 -0.883786
    length 4.48604
    axis -119.517 0.106469 35.1736 xyz
    dof rx ry rz
  end
  begin
    id 13
    name LeftArm
    direction 0.380567 -0.703221 -0.600541
    length 10.1142
    axis -5.41825 36.2925 7.8293 xyz
    dof rx ry rz
  end
  begin
    id 14
    name LeftForeArm
    direction 0.541071 -0.732356 -0.413396
    length 9.39839
    axis 4.65387 33.7604 7.81644 xyz
    dof rx ry rz
  end
  begin
    id 15
    name LeftHand
    direction 0.847511 -0.389379 -0.360707
    length 3.66142
    axis 7.65593 21.1436 -24.6758 xyz
    dof rx ry rz
  end
  begin
    id 16
    name RightShoulderDummy
    direction -0.692546 0.541855 0.476208
    length 2.49352
    axis 42.8809 47.8308 -3.36039 xyz
  end
  begin
    id 17
    name RightShoulder
    direction -0.870808 -0.316653 0.376065
    length 4.48602
    axis 141.571 51.133 -100.254 xyz
    dof rx ry rz
  end
  begin
    id 18
    name RightArm
    direction 0.366897 -0.87275 0.322015
    length 10.1142
    axis 92.3258 71.2036 138.917 xyz
    dof rx ry rz
  end
  begin
    id 19
    name RightForeArm
    direction 0.702487 -0.694568 0.155197
    length 9.39835
    axis 153.863 41.5092 -176.604 xyz
    dof rx ry rz
  end
  begin
    id 20
    name RightHand
    direction 0.79502 -0.601276 0.0800636
    length 3.66142
    axis 154.247 4.59222 142.9 xyz
    dof rx ry rz
  end
  begin
    id 21
    name LeftUpLegDummy
    direction 0.65628 -0.754516 0.00165102
    length 4.76919
    axis 0 0 0 xyz
  end
  begin
    id 22
    name LeftUpLeg
    direction -0.1277 -0.689368 0.713067
    length 17.9961
    axis -48.3385 -17.8675 0.791927 xyz
    dof rx ry rz
  end
  begin
    id 23
    name LeftLeg
    direction 0.109849 -0.991246 -0.0732378
    length 13.3386
    axis -2.05791 -7.30784 1.72042 xyz
    dof rx ry rz
  end
  begin
    id 24
    name LeftFoot
    direction 0.0448355 -0.272614 0.961078
    length 5.86697
    axis -18.7733 -7.89606 10.2113 xyz
    dof rx ry rz
  end
  begin
    id 25
    name LeftToes
    direction -0.18506 0.293668 0.937823
    length 4.75197
    axis 71.2267 -7.89606 10.2113 xyz
    dof rx ry rz
  end
:hierarchy
  begin
    root RightUpLegDummy SpineDummy LeftUpLegDummy
    RightUpLegDummy RightUpLeg
    RightUpLeg RightLeg
    RightLeg RightFoot
    RightFoot RightToes
    SpineDummy Spine
    Spine Spine1
    Spine1 HEadDummy LeftShoulder1Dummy RightShoulderDummy
    HEadDummy HEad
    LeftShoulder1Dummy LeftShoulder1
    LeftShoulder1 LeftArm
    LeftArm LeftForeArm
    LeftForeArm LeftHand
    RightShoulderDummy RightShoulder
    RightShoulder RightArm
    RightArm RightForeArm
    RightForeArm RightHand
    LeftUpLegDummy LeftUpLeg
    LeftUpLeg LeftLeg
    LeftLeg LeftFoot
    LeftFoot LeftToes
  end

:SAMPLES-PER-SECOND 30
:FULLY-SPECIFIED
:DEGREES
212
root  -10.5392 35.1297 -19.7341 -97.1535 -72.9561 -143.85
RightUpLeg  -16.2611 10.3962 -52.9563
RightLeg  -54.9996 -35.8776 19.3367
RightFoot  6.76066 8.87846 -21.4014
RightToes  -1.27222e-014 -6.36111e-015 6.36111e-015
Spine  -4.38812 -5.03163 5.86902
Spine1  -22.696 -16.9736 13.2977
HEad  1.50842 -20.5862 0.821828
LeftShoulder1  6.36111e-015 -1.33558e-015 6.49777e-015
LeftArm  -72.6625 -38.429 29.4042
LeftForeArm  -11.7923 20.0641 5.17854
LeftHand  9.63194 16.497 12.4425
RightShoulder  -4.77083e-015 -6.36111e-015 -3.18055e-015
RightArm  -19.9034 39.7472 -31.5646
RightForeArm  -11.4558 -57.7421 -13.8601
RightHand  22.4859 -16.5186 -59.7615
LeftUpLeg  27.0424 21.7539 67.4145
LeftLeg  -25.6191 -5.74497 -1.99537
LeftFoot  8.04748 8.75647 -23.2177
LeftToes  9.54166e-015 -1.91609e-011 -2.3878e-011
213
root  -10.5779 35.1511 -17.967 -156.971 -68.053 -82.1642
RightUpLeg  -11.7477 12.6723 -51.1597
RightLeg  -51.7173 -37.0928 18.1529
RightFoot  6.48638 8.69895 -21.0099
RightToes  -1.27222e-014 -6.36111e-015 6.36111e-015
Spine  -0.920237 -0.282296 10.0303
Spine1  -19.4141 -15.2708 0.0197946
HEad  3.19135 -22.3251 2.01247
LeftShoulder1  6.36111e-015 -1.33558e-015 6.49777e-015
LeftArm  -75.3854 -36.2072 36.4433
LeftForeArm  -8.04255 15.5591 5.66806
LeftHand  13.7682 20.0386 19.6657
RightShoulder  -4.77083e-015 -6.36111e-015 -3.18055e-015
RightArm  -16.3895 37.0571 -28.6977
RightForeArm  -13.9075 -54.0633 -12.3616
RightHand  18.0417 -18.3961 -45.6332
LeftUpLeg  23.5544 29.7157 65.0705
LeftLeg  -19.4448 -5.01634 -1.80908
LeftFoot  6.60568 8.20716 -22.6229
LeftToes  9.54166e-015 -1.91609e-011 -2.3878e-011
214
root  -10.1865 35.1351 -16.4863 -179.101 -53.4578 -58.9921
RightUpLeg  -5.16621 14.9269 -48.2062
RightLeg  -49.9909 -36.0746 16.3752
RightFoot  6.37098 9.60174 -22.8795
RightToes  -1.27222e-014 -6.36111e-015 6.36111e-015
Spine  -0.236419 4.27894 11.7758
Spine1  -16.5435 -11.5545 -6.72644
HEad  6.7897 -24.1311 2.89353
LeftShoulder1  6.36111e-015 -1.33558e-015 6.49777e-015
LeftArm  -80.0554 -36.0618 49.9468
LeftForeArm  -5.84865 13.6459 2.11
LeftHand  12.0028 20.099 14.0886
RightShoulder  -4.77083e-015 -6.36111e-015 -3.18055e-015
RightArm  -17.0648 27.5594 -32.8021
RightForeArm  -18.1494 -37.5175 -6.44371
RightHand  10.7954 -20.2146 -22.9542
LeftUpLeg  14.7708 39.7531 59.8856
LeftLeg  -18.938 -3.43398 -2.11065
LeftFoot  4.73167 7.4832 -21.7349
LeftToes  9.54166e-015 -1.91609e-011 -2.3878e-011
215
root  -9.42066 35.2064 -15.2691 171.574 -38.1819 -49.2822
RightUpLeg  3.15945 18.0329 -43.7049
RightLeg  -50.4307 -33.5138 14.77
RightFoot  7.19883 9.62057 -22.949
RightToes  -1.27222e-014 -6.36111e-015 6.36111e-015
Spine  -0.867403 7.50065 12.0871
Spine1  -15.771 -8.70547 -9.42728
HEad  9.74103 -23.7934 5.02666
LeftShoulder1  6.36111e-015 -1.33558e-015 6.49777e-015
LeftArm  -85.727 -35.9246 63.8503
LeftForeArm  -1.61049 9.42294 -0.252915
LeftHand  11.593 20.1731 12.6562
RightShoulder  -4.77083e-015 -6.36111e-015 -3.18055e-015
RightArm  -9.84604 27.6701 -39.0861
RightForeArm  -28.9643 -24.3578 -2.83027
RightHand  2.12694 -15.0034 1.74229
LeftUpLeg  -0.278759 48.3351 48.8674
LeftLeg  -23.2616 -6.10075 -1.74555
LeftFoot  2.46696 6.91737 -21.4482
LeftToes  9.54166e-015 -1.91609e-011 -2.3878e-011
216
root  -7.96763 35.2322 -14.2052 165.501 -21.7738 -44.558
RightUpLeg  9.12304 21.2521 -40.2579
RightLeg  -51.1143 -31.369 13.4915
RightFoot  7.61585 9.06249 -21.8332
RightToes  -1.27222e-014 -6.36111e-015 6.36111e-015
Spine  -0.460584 8.59269 11.8224
Spine1  -17.8555 -8.40685 -10.0227
HEad  10.7436 -21.5557 6.94751
LeftShoulder1  6.36111e-015 -1.33558e-015 6.49777e-015
LeftArm  -88.4965 -34.9167 73.3446
LeftForeArm  5.65651 1.63954 -0.67463
LeftHand  15.7469 22.2488 21.5197
RightShoulder  -4.77083e-015 -6.36111e-015 -3.18055e-015
RightArm  3.29969 33.3107 -43.6429
RightForeArm  -36.2937 -7.7256 -12.0239
RightHand  -1.21005 2.60555 7.2785
LeftUpLeg  -16.9658 50.298 34.8347
LeftLeg  -27.7155 -10.3272 -1.92115
LeftFoot  3.04703 6.99305 -21.3199
LeftToes  9.54166e-015 -1.91609e-011 -2.3878e-011
217
root  -5.72891 34.9335 -13.5366 159.731 -3.10858 -43.7256
RightUpLeg  8.34927 22.676 -40.6464
RightLeg  -50.4719 -32.4916 14.019
RightFoot  7.19767 10.4182 -24.584
RightToes  -1.27222e-014 -6.36111e-015 6.36111e-015
Spine  1.56856 8.51759 11.72
Spine1  -20.1351 -8.95359 -10.1381
HEad  11.1073 -19.9791 8.23183
LeftShoulder1  6.36111e-015 -1.33558e-015 6.49777e-015
LeftArm  -87.6149 -32.6343 81.2325
LeftForeArm  11.9559 -5.28165 -2.64162
LeftHand  15.6392 21.9055 21.8084
RightShoulder  -4.77083e-015 -6.36111e-015 -3.18055e-015
RightArm  11.5794 33.8351 -50.6514
RightForeArm  -43.9178 3.36762 -22.759
RightHand  2.65534 -4.64849 -10.6736
LeftUpLeg  -29.1193 50.9909 22.8352
LeftLeg  -26.9496 -12.8897 -0.125448
LeftFoot  4.26699 6.87655 -20.2628
LeftToes  9.54166e-015 -1.91609e-011 -2.3878e-011
218
root  -3.261 34.3106 -13.8657 152.115 16.9196 -46.6028
RightUpLeg  3.82349 21.1645 -42.3115
RightLeg  -51.076 -34.3232 15.7322
RightFoot  8.29042 11.3836 -26.5221
RightToes  -1.27222e-014 -6.36111e-015 6.36111e-015
Spine  3.69426 8.24375 12.1181
Spine1  -20.1426 -8.91762 -10.8337
HEad  13.5763 -22.5662 9.13713
LeftShoulder1  6.36111e-015 -1.33558e-015 6.49777e-015
LeftArm  -84.6601 -30.721 89.7353
LeftForeArm  17.2629 -11.5873 -7.10982
LeftHand  10.3137 18.6178 11.0404
RightShoulder  -4.77083e-015 -6.36111e-015 -3.18055e-015
RightArm  17.1092 30.278 -59.5245
RightForeArm  -49.2533 4.22771 -24.8631
RightHand  6.85434 -12.8905 -18.515
LeftUpLeg  -28.8981 47.6672 20.1204
LeftLeg  -22.1843 -10.3927 -0.501808
LeftFoot  4.77393 6.49928 -18.902
LeftToes  9.54166e-015 -1.91609e-011 -2.3878e-011
219
root  -1.55977 33.4261 -15.3984 140.492 36.8168 -54.4907
RightUpLeg  2.86463 17.5772 -41.5776
RightLeg  -57.0642 -27.8103 13.4634
RightFoot  13.0857 8.41146 -20.9613
RightToes  -1.27222e-014 -6.36111e-015 6.36111e-015
Spine  3.12135 7.95117 13.8336
Spine1  -18.3702 -8.43666 -9.10926
HEad  19.1951 -29.655 6.70787
LeftShoulder1  6.36111e-015 -1.33558e-015 6.49777e-015
LeftArm  -78.572 -29.6114 94.1476
LeftForeArm  27.4181 -24.2548 -15.5826
LeftHand  9.33433 16.8583 10.6771
RightShoulder  -4.77083e-015 -6.36111e-015 -3.18055e-015
RightArm  23.6685 22.1795 -68.0559
RightForeArm  -50.0051 4.70968 -25.6372
RightHand  11.2729 -11.5272 -36.9136
LeftUpLeg  -18.0058 44.0813 24.5627
LeftLeg  -21.0473 -10.3544 -0.541003
LeftFoot  6.05162 6.18866 -17.3978
LeftToes  9.54166e-015 -1.91609e-011 -2.3878e-011
220
root  -1.14434 32.8809 -17.3069 118.137 55.0878 -75.0655
RightUpLeg  7.57114 13.0018 -38.5082
RightLeg  -71.3887 -15.9779 4.01552
RightFoot  21.6545 0.282223 -9.36297
RightToes  -1.27222e-014 -6.36111e-015 6.36111e-015
Spine  0.422357 7.4041 14.3019
Spine1  -16.9232 -7.00159 -2.26116
HEad  25.769 -34.6811 -0.299158
LeftShoulder1  6.36111e-015 -1.33558e-015 6.49777e-015
LeftArm  -67.1964 -30.0201 95.1874
LeftForeArm  41.3954 -35.6863 -26.1146
LeftHand  13.184 18.858 20.0345
RightShoulder  -4.77083e-015 -6.36111e-015 -3.18055e-015
RightArm  27.3876 12.5102 -76.0085
RightForeArm  -49.6279 4.80519 -25.681
RightHand  14.5387 -11.756 -47.3471
LeftUpLeg  -0.65361 32.2484 34.3174
LeftLeg  -27.3291 -7.88514 -4.53253
LeftFoot  8.49833 4.80419 -12.7061
LeftToes  9.54166e-015 -1.91609e-011 -2.3878e-011
221
root  -1.50231 33.3554 -18.4761 67.7734 61.886 -127.265
RightUpLeg  13.2557 6.19039 -35.0891
RightLeg  -88.5422 -11.1184 -7.47915
RightFoot  30.4729 -10.9304 2.09637
RightToes  -1.27222e-014 -6.36111e-015 6.36111e-015
Spine  -1.89841 5.62407 9.29313
Spine1  -18.5102 -5.40863 7.8535
HEad  29.9383 -34.4448 -7.38318
LeftShoulder1  6.36111e-015 -1.33558e-015 6.49777e-015
LeftArm  -51.796 -34.3719 96.1624
LeftForeArm  46.9948 -34.7071 -28.1734
LeftHand  12.1755 18.6959 17.1178
RightShoulder  -4.77083e-015 -6.36111e-015 -3.18055e-015
RightArm  24.6277 5.50434 -80.7011
RightForeArm  -37.9859 15.2001 -33.7352
RightHand  -1.99846 13.3099 -36.2174
LeftUpLeg  14.7011 10.8743 41.4705
LeftLeg  -36.2827 2.93717 -12.1634
LeftFoot  9.60733 2.7516 -7.11091
LeftToes  9.54166e-015 -1.91609e-011 -2.3878e-011
222
root  -2.07253 34.3916 -18.7951 31.8491 44.5258 -169.983
RightUpLeg  15.3404 -0.960718 -33.5261
RightLeg  -97.6295 -10.6806 -13.0833
RightFoot  34.0465 -16.891 7.12324
RightToes  -1.27222e-014 -6.36111e-015 6.36111e-015
Spine  -5.41849 3.05697 2.30503
Spine1  -23.2519 -4.8243 18.4529
HEad  32.712 -33.4667 -13.5476
LeftShoulder1  6.36111e-015 -1.33558e-015 6.49777e-015
LeftArm  -36.1122 -33.6645 91.3475
LeftForeArm  41.1895 -28.099 -19.5356
LeftHand  6.41614 17.5548 -1.55916
RightShoulder  -4.77083e-015 -6.36111e-015 -3.18055e-015
RightArm  17.3449 4.48059 -79.9948
RightForeArm  -23.8912 31.7109 -40.4509
RightHand  -16.182 28.1553 -65.4297
LeftUpLeg  27.384 5.6136 50.9973
LeftLeg  -40.2249 5.94604 -11.0204
LeftFoot  7.04365 1.17756 -3.26006
LeftToes  9.54166e-015 -1.91609e-011 -2.3878e-011
223
root  -2.3506 35.35 -18.46 27.0163 21.3603 173.89
RightUpLeg  13.887 0.329975 -32.5417
RightLeg  -102.497 -8.86166 -8.08827
RightFoot  32.5115 -16.2046 7.18393
RightToes  -1.27222e-014 -6.36111e-015 6.36111e-015
Spine  -10.4338 -0.354534 -2.26176
Spine1  -27.0905 -6.43555 23.5688
HEad  36.4689 -34.5852 -20.1516
LeftShoulder1  6.36111e-015 -1.33558e-015 6.49777e-015
LeftArm  -23.4334 -30.5017 87.3848
LeftForeArm  21.6887 -13.5688 -4.27925
LeftHand  5.11022 12.9989 0.283529
RightShoulder  -4.77083e-015 -6.36111e-015 -3.18055e-015
RightArm  9.34791 11.0589 -78.3012
RightForeArm  -19.6141 27.6179 -33.0332
RightHand  1.69158 10.3941 -73.6308
LeftUpLeg  34.6627 3.66759 56.7221
LeftLeg  -41.3245 9.40082 -15.0927
LeftFoot  4.08228 0.213778 -0.629275
LeftToes  9.54166e-015 -1.91609e-011 -2.3878e-011
